<svg width="800" height="800" viewBox="0 0 800 800" fill="none" xmlns="http://www.w3.org/2000/svg">
<path d="M728.527 463.675L680.095 423.568C671.536 418.806 666.215 409.769 666.215 400.001C666.215 390.224 671.536 381.195 680.095 376.443L728.527 336.316C738.25 330.931 743.038 319.605 740.18 308.843C737.284 298.103 727.472 290.687 716.342 290.869L654.328 280.343C644.56 280.523 635.442 275.373 630.535 266.877C625.646 258.408 625.746 247.946 630.779 239.568L652.668 180.592C658.394 171.05 656.88 158.838 649.016 150.983C641.143 143.108 628.949 141.603 619.398 147.331L560.45 169.229C552.045 174.252 541.573 174.343 533.114 169.437C524.628 164.548 519.486 155.448 519.639 145.672L509.115 83.6483C509.295 72.5365 501.882 62.6874 491.14 59.8288C480.399 56.9516 469.07 61.7403 463.669 71.4815L423.561 119.922C418.808 128.464 409.789 133.785 400.013 133.785C390.218 133.785 381.191 128.464 376.429 119.922L336.326 71.4815C330.942 61.7403 319.587 56.9516 308.855 59.8288C298.104 62.6874 290.691 72.5365 290.88 83.6483L280.364 145.672C280.526 155.449 275.358 164.548 266.872 169.437C258.42 174.344 247.941 174.254 239.553 169.229L180.586 147.331C171.045 141.603 158.85 143.109 150.977 150.983C143.112 158.838 141.606 171.05 147.324 180.592L169.223 239.568C174.255 247.946 174.346 258.408 169.44 266.877C164.551 275.373 155.46 280.523 145.657 280.343L83.6505 290.869C72.5307 290.687 62.7003 298.101 59.8218 308.843C56.9632 319.603 61.7346 330.931 71.4571 336.316L119.907 376.443C128.475 381.195 133.778 390.224 133.778 400.001C133.778 409.769 128.475 418.806 119.907 423.568L71.4571 463.675C61.7346 469.078 56.9645 480.415 59.8218 491.166C62.6989 501.889 72.5293 509.311 83.6505 509.131L145.657 519.629C155.46 519.476 164.551 524.635 169.44 533.121C174.346 541.59 174.257 552.062 169.223 560.44L147.324 619.407C141.606 628.95 143.112 641.152 150.977 649.025C158.85 656.891 171.045 658.405 180.586 652.677L239.553 630.779C247.941 625.746 258.42 625.665 266.872 630.544C275.358 635.441 280.526 644.541 280.364 654.336L290.88 716.359C290.691 727.481 298.104 737.311 308.855 740.179C319.587 743.038 330.942 738.258 336.326 728.536L376.425 680.085C381.187 671.535 390.214 666.215 400.009 666.215C409.787 666.215 418.804 671.535 423.557 680.085L463.665 728.536C469.066 738.258 480.395 743.038 491.136 740.179C501.878 737.311 509.292 727.481 509.111 716.359L519.635 654.336C519.482 644.541 524.624 635.441 533.11 630.544C541.57 625.664 552.041 625.746 560.446 630.779L619.394 652.677C628.945 658.405 641.139 656.889 649.012 649.025C656.877 641.152 658.392 628.948 652.664 619.407L630.775 560.44C625.742 552.062 625.642 541.59 630.531 533.121C635.438 524.635 644.556 519.476 654.324 519.629L716.338 509.131C727.468 509.311 737.28 501.889 740.176 491.166C743.04 480.415 738.25 469.078 728.527 463.675ZM250.015 390.585C250.005 386.598 251.557 382.855 254.38 380.033L280.103 354.291L252.937 327.135C247.129 321.336 247.129 311.883 252.937 306.084C255.761 303.271 259.503 301.729 263.471 301.729C267.439 301.729 271.182 303.28 273.987 306.084L301.153 333.241L328.328 306.084C331.133 303.279 334.866 301.729 338.835 301.729C342.812 301.729 346.546 303.271 349.359 306.076C352.183 308.9 353.743 312.634 353.743 316.612C353.733 320.589 352.183 324.323 349.368 327.136L322.193 354.292L347.924 380.034C350.748 382.857 352.299 386.6 352.291 390.586C352.291 394.555 350.739 398.288 347.916 401.094C345.102 403.899 341.368 405.449 337.4 405.449C333.432 405.449 329.698 403.897 326.874 401.083L301.153 375.352L275.43 401.083C272.607 403.897 268.874 405.449 264.905 405.449C260.928 405.449 257.193 403.897 254.38 401.083C251.565 398.287 250.015 394.553 250.015 390.585ZM531.245 513.515C525.572 513.515 520.179 512.306 515.515 510.006C511.8 508.176 508.418 505.704 504.874 502.222C503.061 500.382 501.492 498.651 500.048 497.046C497.594 494.339 495.484 491.995 493.654 490.813C491.877 489.668 490.417 489.072 487.377 489.027C484.943 489.045 483.634 489.513 482.587 490.028C481.315 490.651 480.017 491.634 478.366 493.24C477.257 494.314 476.156 495.558 474.966 496.91C472.124 500.121 468.598 504.116 463.566 507.579C459.598 510.294 452.996 513.515 444.004 513.515H443.624C437.987 513.515 432.594 512.306 427.941 510.006C424.217 508.176 420.852 505.696 417.326 502.214C415.504 500.374 413.917 498.616 412.455 497.002C410.02 494.314 407.927 491.987 406.114 490.824C404.32 489.669 402.868 489.075 399.836 489.029C397.573 489.048 396.274 489.444 395.038 490.05C393.785 490.653 392.505 491.636 390.872 493.233C389.736 494.316 388.634 495.578 387.444 496.94C384.613 500.141 381.095 504.128 376.081 507.582C372.122 510.289 365.519 513.518 356.519 513.518C350.511 513.518 345.127 512.308 340.473 510.009C336.749 508.179 333.276 505.625 329.849 502.198C328 500.34 326.376 498.546 324.879 496.886C322.497 494.243 320.442 491.971 318.665 490.825C316.888 489.662 315.444 489.076 312.404 489.031C309.988 489.049 308.663 489.526 307.597 490.04C306.361 490.653 305.037 491.664 303.44 493.233C302.294 494.326 301.186 495.596 299.986 496.958C297.162 500.16 293.655 504.137 288.649 507.582C284.671 510.297 278.061 513.518 269.087 513.518C261.962 513.518 256.432 507.988 256.432 501.198C256.432 494.406 261.96 488.878 268.752 488.878C271.214 488.878 272.558 488.391 273.641 487.868C274.877 487.263 276.202 486.245 277.762 484.694C278.944 483.567 280.053 482.304 281.252 480.941C284.075 477.758 287.574 473.79 292.57 470.344C296.529 467.629 303.159 464.391 312.259 464.391C318.121 464.391 323.542 465.619 328.205 467.927C332.994 470.272 336.547 473.482 338.801 475.702C340.642 477.559 342.229 479.319 343.69 480.951C346.107 483.629 348.2 485.947 350.012 487.121C351.789 488.266 353.231 488.852 356.227 488.879C358.643 488.879 359.969 488.402 361.042 487.877C362.278 487.274 363.605 486.253 365.209 484.675C366.354 483.575 367.464 482.32 368.663 480.959C371.487 477.775 374.995 473.798 380 470.344C383.959 467.629 390.588 464.391 399.688 464.391C405.523 464.391 410.936 465.619 415.616 467.927C420.414 470.264 423.977 473.465 426.231 475.665C428.089 477.55 429.686 479.319 431.155 480.951C433.573 483.629 435.665 485.947 437.469 487.121C439.246 488.266 440.698 488.852 443.711 488.879C445.966 488.879 447.301 488.474 448.59 487.86C449.8 487.274 451.124 486.254 452.711 484.684C453.876 483.565 454.984 482.313 456.193 480.951C459.016 477.758 462.534 473.799 467.53 470.345C471.508 467.63 478.137 464.392 487.228 464.392C493.081 464.392 498.501 465.62 503.183 467.929C507.991 470.282 511.543 473.475 513.789 475.666C515.638 477.543 517.235 479.311 518.696 480.935C521.121 483.623 523.224 485.948 525.037 487.122C526.804 488.268 528.256 488.854 531.287 488.88C538.033 488.88 543.553 494.408 543.553 501.2C543.557 507.986 538.037 513.515 531.245 513.515ZM545.603 380.033C551.394 385.85 551.394 395.292 545.603 401.082C542.798 403.896 539.064 405.448 535.088 405.448C531.111 405.448 527.377 403.896 524.553 401.082L498.832 375.351L473.101 401.082C470.286 403.896 466.552 405.448 462.575 405.448C458.598 405.448 454.864 403.896 452.051 401.082C449.236 398.287 447.684 394.552 447.684 390.584C447.675 386.597 449.227 382.854 452.051 380.031L477.782 354.29L450.616 327.133C447.803 324.32 446.251 320.585 446.251 316.609C446.251 312.631 447.803 308.898 450.616 306.083C453.421 303.278 457.164 301.727 461.14 301.727C465.118 301.727 468.861 303.27 471.675 306.083L498.832 333.239L525.997 306.083C528.812 303.27 532.555 301.727 536.521 301.727C540.499 301.727 544.242 303.279 547.047 306.083C552.838 311.891 552.838 321.326 547.047 327.133L519.882 354.29L545.603 380.033Z" fill="#7DFF99"/>
</svg>
