<svg width="800" height="800" viewBox="0 0 800 800" fill="none" xmlns="http://www.w3.org/2000/svg">
<path d="M666.666 600.001C666.666 673.637 547.276 733.334 400 733.334C252.724 733.334 133.333 673.637 133.333 600.001V465.801C150.073 486.354 173.831 503.431 200.258 516.641C252.668 542.847 323.322 558.334 400 558.334C476.676 558.334 547.333 542.847 599.743 516.641C626.17 503.431 649.926 486.354 666.666 465.801V600.001Z" fill="white"/>
<path d="M400 358.333C476.676 358.333 547.333 342.847 599.743 316.642C626.17 303.428 649.926 286.353 666.666 265.799V400C666.666 416.666 607.143 453.037 577.38 471.92C533.276 493.973 470.6 508.333 400 508.333C329.401 508.333 266.722 493.973 222.618 471.92C183.333 452.277 133.333 416.666 133.333 400V265.799C150.073 286.353 173.831 303.428 200.258 316.642C252.668 342.847 323.322 358.333 400 358.333Z" fill="white"/>
<path d="M577.38 271.92C533.277 293.972 470.6 308.333 400 308.333C329.402 308.333 266.723 293.972 222.619 271.92C205.462 265.198 166.879 243.83 140.05 209.311C135.485 203.437 133.526 195.95 134.663 188.599C135.428 183.656 136.494 178.564 137.86 175.408C160.939 113.517 269.527 66.666 400 66.666C530.474 66.666 639.06 113.517 662.14 175.408C663.507 178.564 664.574 183.656 665.337 188.599C666.474 195.95 664.517 203.437 659.95 209.311C633.12 243.83 594.54 265.198 577.38 271.92Z" fill="white"/>
</svg>
