<svg width="622" height="622" viewBox="0 0 622 622" fill="none" xmlns="http://www.w3.org/2000/svg">
<path d="M269.257 507.364C269.257 539.812 269.257 572.23 269.257 604.678H352.402V507.143C340.133 505.696 326.26 504.72 311.065 504.751C295.682 504.783 281.652 505.853 269.257 507.364Z" fill="#52FFAE"/>
<path d="M310.748 15C217.411 177.149 124.104 339.298 30.798 501.478C20.5425 518.914 10.2555 536.35 0 553.786C22.3985 571.191 44.7971 588.595 67.2271 606C97.5847 576.384 148.611 536.004 220.902 516.554C237.922 511.959 254.157 509.095 269.257 507.364C269.257 478.944 269.254 450.523 269.223 422.135C260.415 422.985 251.26 424.18 241.822 425.754C210.112 431.073 182.366 439.697 158.96 449.044C209.577 361.077 260.163 273.11 310.78 185.143C362.435 273.74 414.09 362.336 465.745 450.933C454.451 446.589 442.34 442.403 429.442 438.532C401.632 430.192 375.647 425.03 352.431 421.883V507.143C371.369 509.535 392.667 513.816 415.443 521.18C481.254 542.487 527.247 579.374 554.49 605.843C576.983 588.69 599.507 571.506 622 554.353C518.218 374.579 414.499 194.774 310.748 15Z" fill="#52FFAE"/>
</svg>
