<svg width="200" height="200" viewBox="0 0 200 200" fill="none" xmlns="http://www.w3.org/2000/svg">
<path d="M86.73 162.55C86.73 172.86 86.73 183.16 86.73 193.47H113.16V162.48C109.26 162.02 104.85 161.71 100.02 161.72C95.13 161.73 90.67 162.07 86.73 162.55Z" fill="#7F68FF"/>
<path d="M99.92 6.10999C70.25 57.63 40.59 109.15 10.93 160.68C7.67001 166.22 4.40001 171.76 1.14001 177.3C8.26001 182.83 15.38 188.36 22.51 193.89C32.16 184.48 48.38 171.65 71.36 165.47C76.77 164.01 81.93 163.1 86.73 162.55C86.73 153.52 86.73 144.49 86.72 135.47C83.92 135.74 81.01 136.12 78.01 136.62C67.93 138.31 59.11 141.05 51.67 144.02C67.76 116.07 83.84 88.12 99.93 60.17C116.35 88.32 132.77 116.47 149.19 144.62C145.6 143.24 141.75 141.91 137.65 140.68C128.81 138.03 120.55 136.39 113.17 135.39V162.48C119.19 163.24 125.96 164.6 133.2 166.94C154.12 173.71 168.74 185.43 177.4 193.84C184.55 188.39 191.71 182.93 198.86 177.48C165.87 120.36 132.9 63.23 99.92 6.10999Z" fill="#7F68FF"/>
</svg>
