<?xml version="1.0" encoding="UTF-8"?>
<svg id="Layer_1" data-name="Layer 1" xmlns="http://www.w3.org/2000/svg" viewBox="0 0 200 200">
  <defs>
    <style>
      .cls-1 {
        fill: none;
        stroke-width: 3px;
      }

      .cls-1, .cls-2 {
        stroke: #fff;
        stroke-miterlimit: 10;
      }

      .cls-2 {
        fill: #fff;
        stroke-width: 2px;
      }
    </style>
  </defs>
  <path class="cls-1" d="M115.75,128.66c11.16-23.86,22.33-47.72,33.49-71.58,10.48,40.51,20.97,81.02,31.45,121.53-51.75-11.34-103.5-22.67-155.26-34.01,12.86-41.79,25.71-83.58,38.57-125.37,17,36.32,34,72.65,50.99,108.97,20.09,15.83,40.19,31.66,60.28,47.48.09.14,1.2,1.71,2.77,1.57.24-.02.56-.09.93-.28C140.38,124.33,101.8,71.7,63.21,19.07c28.27,12.69,56.54,25.38,84.81,38.07-40.34,28.73-80.67,57.46-121.01,86.19,29.13-4.65,58.25-9.3,87.38-13.95"/>
  <circle class="cls-2" cx="24.68" cy="144.28" r="9.74"/>
  <circle class="cls-2" cx="115.46" cy="128.77" r="9.74"/>
  <circle class="cls-2" cx="180.69" cy="179.89" r="9.74"/>
  <circle class="cls-2" cx="63.89" cy="20.11" r="9.74"/>
  <circle class="cls-2" cx="149.28" cy="58.16" r="9.74"/>
</svg>