<svg width="207" height="215" viewBox="0 0 207 215" fill="none" xmlns="http://www.w3.org/2000/svg">
<g clip-path="url(#clip0_149_9)">
<path d="M202.816 85.9111C198.763 75.9741 192.084 67.553 183.457 61.491C179.144 58.4583 174.44 56.1357 169.478 54.5505C164.42 52.8662 159.068 52.0243 153.589 52.0243C146.647 52.0243 139.87 53.3731 133.513 56.0669C133.19 56.2017 132.864 56.3365 132.573 56.4713C132.38 56.5733 132.184 56.6392 132.022 56.7408C126.508 59.2671 121.45 62.7701 116.909 67.1814C115.484 68.5957 114.122 70.0797 112.855 71.6283C110.844 74.0198 108.64 76.8849 105.917 80.6911L104.488 82.6446C103.225 84.4275 91.4528 102.348 89.3439 105.614C88.5329 106.893 87.5925 108.308 86.5887 109.792L84.8377 112.383C82.7947 115.416 80.3625 118.817 77.9937 121.985C76.8916 123.432 75.7895 124.814 74.8491 125.959C73.9402 127.071 73.0977 127.945 72.5151 128.518C69.9846 131.044 67.0648 132.965 63.8563 134.314C60.5467 135.728 57.0127 136.436 53.4117 136.436C50.9163 136.436 48.4521 136.097 46.0518 135.389C45.5958 135.291 45.1745 135.156 44.7217 134.988C44.0093 134.751 43.2937 134.449 42.581 134.146C37.5863 131.956 33.3395 128.351 30.3215 123.669C28.7981 121.311 27.5981 118.752 26.8186 116.124C25.9765 113.193 25.5552 110.364 25.5552 107.502C25.5552 103.627 26.3027 99.8542 27.7279 96.2526C29.8371 91.098 33.3399 86.6834 37.8462 83.5193C40.0505 81.9697 42.5179 80.7562 45.143 79.9142C47.8667 79.0064 50.6568 78.5688 53.3805 78.5688C57.0762 78.6016 60.6138 79.3087 63.8567 80.6541C67.0995 82.0684 70.0165 84.0223 72.5155 86.4499C73.1296 87.055 73.9406 87.9994 74.8495 89.0417C76.4707 91.0287 78.4817 93.6238 80.5881 96.5545C80.9774 97.0941 81.3356 97.5976 81.725 98.1367C84.9015 93.2522 94.8266 78.1275 96.1887 76.2101L96.9678 75.0981C96.0274 73.8842 95.0866 72.7067 94.1458 71.6279C92.6192 69.8092 91.3873 68.4273 90.0923 67.1478C85.2278 62.398 79.6477 58.6943 73.5194 56.066C67.1315 53.3718 60.3546 52.0234 53.4121 52.0234C46.1816 52.0234 39.1768 53.5066 32.5924 56.4049C23.0914 60.5462 14.9525 67.5198 9.11245 76.4801C6.22617 80.8914 3.99041 85.7759 2.36918 90.9964C0.810615 96.3512 0 101.877 0 107.502C0 115.012 1.39361 122.255 4.18366 129.094C8.20601 138.995 14.8846 147.415 23.5119 153.514C27.8569 156.51 32.56 158.869 37.5224 160.484C42.6464 162.135 47.9638 162.977 53.4113 162.977C60.3534 162.977 67.1307 161.595 73.5186 158.934C79.1937 156.51 84.4164 153.142 89.0529 148.797C89.4107 148.494 89.7337 148.155 90.0563 147.853C91.4532 146.54 92.7166 145.093 94.145 143.372C96.1879 140.948 98.3602 138.086 101.115 134.314L102.512 132.36C103.323 131.215 109.872 121.245 115.158 113.226C118.208 108.578 120.738 104.739 121.223 103.999L122.163 102.65C124.434 99.2823 126.866 95.8482 129.007 93.0158C130.109 91.5683 131.211 90.1872 132.152 89.0421C133.061 87.9305 133.903 87.0554 134.486 86.4831C136.984 84.0223 139.901 82.0684 143.113 80.6907C143.924 80.3518 144.734 80.049 145.482 79.8122C146.258 79.5787 147.005 79.3746 147.816 79.2067C149.697 78.8023 151.61 78.6016 153.554 78.5688C157.415 78.6016 161.079 79.3746 164.42 80.8582C169.415 83.0456 173.662 86.6506 176.68 91.3315C178.235 93.6898 179.403 96.2525 180.179 98.9102C181.025 101.673 181.446 104.571 181.446 107.502C181.446 111.41 180.698 115.179 179.274 118.752C177.133 123.939 173.662 128.35 169.155 131.484C166.853 133.099 164.421 134.313 161.859 135.119C159.167 135.998 156.376 136.435 153.59 136.435C149.988 136.435 146.455 135.728 143.145 134.313C139.936 132.965 137.017 131.044 134.486 128.554C133.872 127.945 133.061 127.005 132.12 125.925C130.629 124.14 128.748 121.683 126.347 118.38C125.989 117.909 125.666 117.403 125.308 116.9C124.627 117.91 123.946 118.988 123.202 120.097C115.126 132.36 111.624 137.646 110.879 138.757L110.034 139.938C111.009 141.116 111.915 142.297 112.824 143.34C114.284 145.126 115.614 146.606 116.909 147.853C121.774 152.603 127.351 156.306 133.482 158.934C139.87 161.596 146.647 162.977 153.59 162.977C160.82 162.977 167.793 161.53 174.374 158.632C183.91 154.455 192.049 147.484 197.886 138.524C200.837 133.942 203.108 129.057 204.6 124.004C206.19 118.682 207 113.159 207 107.501C207 100.022 205.606 92.7491 202.816 85.9111Z" fill="white"/>
</g>
<defs>
<clipPath id="clip0_149_9">
<rect width="207" height="215" fill="white"/>
</clipPath>
</defs>
</svg>
