<svg width="296" height="301" viewBox="0 0 296 301" fill="none" xmlns="http://www.w3.org/2000/svg">
<path d="M295.405 211.566L267.97 78.6286C264.887 63.6885 251.926 52.9942 236.92 52.9942H210.34C201.402 52.9942 194.153 60.3652 194.153 69.4546C194.153 78.5434 186.904 85.9149 177.967 85.9149H161.233H134.766H118.037C109.094 85.9149 101.845 78.544 101.845 69.4546V65.2135C101.845 56.1195 94.6015 52.9942 85.6585 52.9942H59.0792C44.0722 52.9942 31.1118 63.6885 28.0292 78.6286L0.592589 211.566C-0.985692 219.229 0.620339 227.212 5.03606 233.624C9.45178 240.034 16.2841 244.304 23.9032 245.41L39.7848 247.721C51.0565 249.354 62.1704 243.847 67.8545 233.816L96.2387 183.672C99.7052 177.553 106.13 173.778 113.074 173.778H182.924C189.872 173.778 196.287 177.553 199.754 183.672L228.148 233.816C233.828 243.847 244.942 249.354 256.213 247.721L272.099 245.41C279.719 244.303 286.547 240.034 290.962 233.624C295.378 227.212 296.989 219.229 295.405 211.566ZM99.5624 136.23H79.3847V156.743H63.392V136.23H43.2154V119.967H63.3926V99.4529H79.3852V119.967H99.563L99.5624 136.23ZM226.412 93.2589C233.138 93.2589 238.591 98.8038 238.591 105.648C238.591 112.487 233.138 118.032 226.412 118.032C219.677 118.032 214.224 112.487 214.224 105.648C214.224 98.8038 219.677 93.2589 226.412 93.2589ZM202.041 142.815C195.315 142.815 189.858 137.265 189.858 130.421C189.858 123.581 195.315 118.031 202.041 118.031C208.772 118.031 214.225 123.581 214.225 130.421C214.224 137.265 208.771 142.815 202.041 142.815ZM226.412 167.588C219.677 167.588 214.224 162.039 214.224 155.199C214.224 148.36 219.677 142.815 226.412 142.815C233.138 142.815 238.591 148.36 238.591 155.199C238.591 162.039 233.138 167.588 226.412 167.588ZM250.769 142.815C244.044 142.815 238.591 137.265 238.591 130.421C238.591 123.581 244.044 118.031 250.769 118.031C257.5 118.031 262.957 123.581 262.957 130.421C262.957 137.265 257.5 142.815 250.769 142.815Z" fill="#FF595C"/>
</svg>
