<svg width="800" height="800" viewBox="0 0 800 800" fill="none" xmlns="http://www.w3.org/2000/svg">
<path fill-rule="evenodd" clip-rule="evenodd" d="M161.305 100L5.75 700H109.056L147.945 550H302.046L340.935 700H444.241L288.686 100H161.305ZM276.12 450L224.995 252.804L173.871 450H276.12Z" fill="#4EFFB8"/>
<path fill-rule="evenodd" clip-rule="evenodd" d="M700 366.841C677.27 356.043 651.84 350 625 350C528.35 350 450.002 428.35 450.002 525C450.002 621.65 528.35 700 625 700C651.84 700 677.27 693.96 700 683.16V700H800V350H700V366.841ZM550 525C550 483.579 583.58 450 625 450C666.425 450 700 483.579 700 525C700 566.42 666.425 600 625 600C583.58 600 550 566.42 550 525Z" fill="#4EFFB8"/>
</svg>
