<svg width="556" height="566" viewBox="0 0 556 566" fill="none" xmlns="http://www.w3.org/2000/svg">
<rect width="555.953" height="566" rx="277.976" fill="url(#paint0_linear_87_7)"/>
<path d="M132.992 386.675L146.63 373.304L165.743 377.456L169.731 397.695L156.462 410.704L152.855 391.202L132.992 386.675Z" fill="white"/>
<path d="M140.451 360.901L174.008 369.384L182.774 404.235L195.683 391.578L187.92 356.772L153.261 348.341L140.451 360.901Z" fill="white"/>
<path d="M147.78 336.653L195.539 349.303L206.936 397.22L219.959 384.451L210.104 340.805L204.366 334.927L160.607 324.075L147.78 336.653Z" fill="white"/>
<path d="M351.994 478.923C346.593 464.81 341.191 450.7 335.79 436.587C344.538 427.801 356.537 413.78 366.466 393.655C366.954 392.668 368.872 388.754 371.048 383.508C382.012 357.088 384.297 333.584 384.903 325.322C385.893 311.814 387.351 288.847 378.336 260.938C375.182 251.176 366.471 227.57 345.365 204.325C329.143 186.462 312.122 175.99 300.869 170.193C310.1 173.571 321.039 178.639 332.332 186.385C337.008 189.592 341.177 192.868 344.87 196.07C357.735 183.455 370.6 170.841 383.465 158.226C376.514 157.588 369.563 156.948 362.609 156.311C382.403 146.63 402.194 136.95 421.988 127.266C411.906 146.365 401.823 165.463 391.74 184.559C391.164 177.843 390.587 171.123 390.013 164.404C377.232 176.935 364.453 189.465 351.673 201.996C356.057 206.53 361.587 212.721 367.362 220.544C371.125 225.641 379.343 236.899 386.21 252.319C388.515 257.493 397.974 279.543 399.263 310.341C400.355 336.419 395.055 355.932 393.661 360.82C391.733 367.579 385.361 388.136 369.204 410.251C361.797 420.388 354.373 428.064 348.531 433.479C349.685 448.626 350.841 463.776 351.994 478.923Z" fill="white"/>
<path d="M210.104 340.805L335.161 218.7C339.329 223.177 358.368 243.891 367.097 263.091C369.243 267.811 371.142 272.878 371.142 272.878C374.961 283.085 377.085 291.952 378.323 298.356C376.996 284.176 372.773 259.551 357.235 233.816C354.836 229.845 346.214 215.985 330.873 201.44C325.281 196.14 302.032 174.853 266.249 163.905C257.478 161.224 245.408 157.638 230.327 158.255C221.297 158.625 211.437 160.492 209.098 160.949C207.078 161.341 200.746 162.616 193.886 164.682C173.236 170.9 156.717 181.617 146.894 189.068C141.854 192.89 135.064 198.516 127.744 206.205C111.956 204.816 96.1672 203.427 80.3787 202.038C94.7908 207.894 109.2 213.75 123.613 219.606C132.368 211.081 143.397 202.301 157.091 194.88C157.979 194.398 160.66 192.955 164.23 191.253C170.362 188.327 184.672 181.617 203.902 178.187C209.172 177.247 229.085 174.01 254.473 178.249C272.757 181.302 285.956 186.91 292.568 189.77C303.72 194.592 310.73 199.066 313.02 200.564C319.432 204.756 324.482 208.908 328.163 212.227C286.897 253.127 245.63 294.026 204.366 334.927C206.277 336.886 208.191 338.845 210.104 340.805Z" fill="white"/>
<defs>
<linearGradient id="paint0_linear_87_7" x1="0" y1="566" x2="555.953" y2="566" gradientUnits="userSpaceOnUse">
<stop stop-color="#6D1BD7"/>
<stop offset="1" stop-color="#3C07D2"/>
</linearGradient>
</defs>
</svg>
