<svg width="700" height="700" viewBox="0 0 700 700" fill="none" xmlns="http://www.w3.org/2000/svg">
<circle cx="350" cy="349" r="215" fill="white"/>
<path fill-rule="evenodd" clip-rule="evenodd" d="M275.605 77.0884C268.08 83.5011 264.318 86.7079 260.299 89.4011C251.088 95.575 240.743 99.8599 229.864 102.008C225.118 102.945 220.19 103.338 210.335 104.124C185.572 106.101 173.19 107.089 162.861 110.737C138.969 119.176 120.176 137.969 111.737 161.861C108.089 172.19 107.101 184.572 105.124 209.335C104.338 219.19 103.945 224.118 103.008 228.864C100.86 239.743 96.575 250.088 90.4011 259.299C87.7079 263.318 84.5014 267.08 78.0884 274.605C61.9759 293.513 53.9194 302.965 49.1954 312.85C38.2682 335.713 38.2682 362.287 49.1954 385.15C53.9197 395.035 61.9759 404.487 78.0884 423.395C84.5005 430.919 87.7079 434.683 90.4011 438.7C96.575 447.911 100.86 458.256 103.008 469.136C103.945 473.882 104.338 478.811 105.124 488.665C107.101 513.428 108.089 525.81 111.737 536.14C120.176 560.031 138.969 578.825 162.861 587.264C173.19 590.91 185.572 591.899 210.335 593.876C220.19 594.661 225.118 595.057 229.864 595.993C240.743 598.14 251.088 602.426 260.299 608.6C264.318 611.292 268.08 614.499 275.605 620.911C294.513 637.025 303.965 645.081 313.85 649.805C336.713 660.732 363.287 660.732 386.15 649.805C396.035 645.081 405.487 637.025 424.395 620.911C431.919 614.499 435.683 611.292 439.7 608.6C448.911 602.426 459.256 598.14 470.136 595.993C474.882 595.057 479.811 594.661 489.665 593.876C514.428 591.899 526.81 590.91 537.14 587.264C561.031 578.825 579.825 560.031 588.264 536.14C591.91 525.81 592.899 513.428 594.876 488.665C595.661 478.811 596.057 473.882 596.993 469.136C599.14 458.256 603.426 447.911 609.6 438.7C612.292 434.683 615.499 430.919 621.911 423.395C638.025 404.487 646.081 395.035 650.805 385.15C661.732 362.287 661.732 335.713 650.805 312.85C646.081 302.965 638.025 293.513 621.911 274.605C615.499 267.08 612.292 263.318 609.6 259.299C603.426 250.088 599.14 239.743 596.993 228.864C596.057 224.118 595.661 219.19 594.876 209.335C592.899 184.572 591.91 172.19 588.264 161.861C579.825 137.969 561.031 119.176 537.14 110.737C526.81 107.089 514.428 106.101 489.665 104.124C479.811 103.338 474.882 102.945 470.136 102.008C459.256 99.8599 448.911 95.575 439.7 89.4011C435.683 86.7079 431.919 83.5014 424.395 77.0884C405.487 60.9759 396.035 52.9197 386.15 48.1954C363.287 37.2682 336.713 37.2682 313.85 48.1954C303.965 52.9194 294.513 60.9759 275.605 77.0884ZM485.141 282.971C494.961 273.15 494.961 257.227 485.141 247.406C475.321 237.585 459.395 237.585 449.575 247.406L299.704 397.278L250.424 347.999C240.603 338.179 224.68 338.179 214.859 347.999C205.038 357.819 205.038 373.742 214.859 383.565L281.921 450.627C291.741 460.447 307.664 460.447 317.487 450.627L485.141 282.971Z" fill="url(#paint0_linear_175_2)"/>
<defs>
<linearGradient id="paint0_linear_175_2" x1="249" y1="-84.5" x2="866" y2="891.5" gradientUnits="userSpaceOnUse">
<stop stop-color="#29FFB4"/>
<stop offset="1" stop-color="#3A09FD"/>
</linearGradient>
</defs>
</svg>
