<svg width="420" height="420" viewBox="0 0 420 420" fill="none" xmlns="http://www.w3.org/2000/svg">
<path d="M283.102 162.775L283.61 156.43C284.118 148.307 284.371 141.285 284.371 135.362C284.371 121.486 283.525 108.964 281.833 97.795C280.141 86.6265 277.264 77.0656 273.203 69.1123C269.311 60.9897 263.98 54.8131 257.212 50.5827C250.612 46.1829 242.236 43.9831 232.083 43.9831C219.729 43.9831 208.222 46.9444 197.562 52.8671C187.07 58.6206 176.748 67.5893 166.594 79.7731H148.319V58.7052C164.395 47.3675 176.832 39.3296 185.632 34.5914C194.6 29.684 203.484 26.0457 212.284 23.6767C221.252 21.3076 230.983 20.123 241.474 20.123C269.734 20.123 290.886 29.7686 304.932 49.0597C318.977 68.1815 326 97.2028 326 136.123C326 151.522 324.646 169.883 321.938 191.204C319.231 212.357 314.662 234.44 308.231 257.454C301.801 280.468 294.355 300.013 285.894 316.089C277.433 332.165 268.042 345.448 257.719 355.94C247.397 366.432 235.467 374.554 221.929 380.308C208.561 386.061 193.416 388.938 176.494 388.938C159.403 388.938 144.596 385.469 132.074 378.531C119.551 371.424 110.075 361.27 103.645 348.071C97.2142 334.703 93.999 318.373 93.999 299.082C93.999 280.13 96.9604 261.346 102.883 242.732C108.806 223.949 117.436 206.942 128.774 191.712C140.281 176.313 153.903 164.214 169.64 155.414C185.547 146.615 202.554 142.215 220.66 142.215C232.844 142.215 243.505 143.654 252.643 146.53C261.781 149.238 271.934 154.653 283.102 162.775ZM270.918 211.511C270.918 194.25 267.365 181.728 260.258 173.944C253.32 166.16 242.659 162.268 228.275 162.268C217.953 162.268 208.053 164.975 198.577 170.39C189.27 175.636 180.893 183.251 173.448 193.235C166.002 203.219 159.741 214.811 154.664 228.01C149.757 241.209 145.865 254.662 142.988 268.369C140.281 281.906 138.927 296.036 138.927 310.758C138.927 325.988 140.535 337.918 143.75 346.548C147.134 355.009 151.534 360.847 156.949 364.063C162.364 367.278 169.133 368.885 177.255 368.885C195.531 368.885 211.099 361.609 223.96 347.056C236.99 332.334 248.074 310.335 257.212 281.06C266.35 251.616 270.918 228.433 270.918 211.511Z" fill="white"/>
</svg>
