<svg width="820" height="812" viewBox="0 0 820 812" fill="none" xmlns="http://www.w3.org/2000/svg">
<g clip-path="url(#clip0_163_9)">
<path d="M612.327 517.619C734.507 454.065 805.734 369.86 785.008 299.515C764.235 229.144 657.979 195.299 519.851 205.766C504.363 175.189 484.541 144.056 461.632 114.947L459.081 111.98C405.05 46.5946 348.453 18.24 299.603 32.1467C250.754 46.0535 218.308 99.7218 208.244 183.29C204.202 223.772 204.378 260.452 208.094 296.708L207.914 294.446C85.4716 358.036 14.0141 442.383 34.7721 512.836C43.0805 537.506 60.4578 559.423 85.2626 573.088C87.0543 574.075 88.8482 575.003 90.6674 575.885L90.4114 575.744C159.301 606.395 231.58 615.697 300.667 606.511L299.404 606.657C328.017 668.852 374.503 724.975 435.995 766.028L437.2 766.812C438.628 767.689 440.325 768.683 442.047 769.632C466.921 783.335 494.779 786.337 520.261 780.161L520.166 780.169C590.701 760.097 623.803 654.86 612.209 517.614L612.327 517.619ZM710.422 271.222C711.835 271.85 713.419 272.663 714.978 273.522C730.313 281.969 741.259 295.298 746.896 310.447L746.865 310.339C759.693 353.838 706.38 419.288 607.453 474.327C601.248 433.065 592.726 394.852 581.592 357.363L581.582 357.327C570.346 319.692 556.428 282.741 539.98 246.859L538.81 244.413C594.473 238.344 653.575 246.514 709.174 270.624L710.411 271.186L710.422 271.222ZM370.676 273.011C411.111 261.496 452.497 253.209 494.403 248.272L497.189 248.005C516.519 288.567 531.536 327.926 543.402 368.162L543.449 368.187C555.315 408.423 563.944 449.578 569.233 491.236L569.525 494.01C528.974 513.059 489.54 527.767 449.167 539.225C408.818 550.696 367.516 558.94 325.681 563.856L322.895 564.124C303.433 523.638 288.343 484.3 276.49 444.041C264.624 403.806 255.91 362.694 250.464 321.1L250.173 318.326C290.772 299.244 330.278 284.515 370.712 273L370.676 273.011ZM247.74 188.289C255.676 122.349 278.663 79.2987 310.85 70.1485C326.897 66.6746 344.394 68.7744 360.077 77.414C361.59 78.2472 363.077 79.1265 364.479 80.0492L364.27 79.9339C390.422 95.7221 412.17 115.541 429.475 138.14L428.451 136.915C448.697 162.544 464.53 186.824 478.165 212.176L477.037 210.203C396.656 221.667 320.739 243.249 248.943 274.639L246.542 275.749C244.392 249.426 244.539 220.584 247.247 191.771L247.704 188.299L247.74 188.289ZM72.9768 501.956C60.1527 458.339 113.722 392.7 213.104 337.551C219.076 379.015 227.403 417.361 238.355 454.96L238.334 454.889C249.371 492.445 263.009 529.242 279.13 565.003L280.255 567.365C166.598 572.722 85.8792 545.375 72.9768 501.956ZM509.064 742.126C465.346 754.535 399.087 700.885 342.906 601.908C384.368 596.125 422.735 587.977 460.365 577.26C498.051 566.605 534.928 553.401 570.791 537.686L573.143 536.609C579.472 649.662 552.663 729.712 509.064 742.126ZM375.027 469.49C410.373 488.961 454.642 476.376 473.923 441.375C493.204 406.374 480.186 362.23 444.84 342.759C409.494 323.288 365.225 335.873 345.944 370.874C326.722 405.877 339.73 449.986 375.027 469.49ZM425.8 377.322C441.856 386.167 447.778 406.248 439.02 422.147C430.261 438.046 410.122 443.772 394.067 434.927C378.011 426.082 372.089 406 380.847 390.101C389.629 374.215 409.732 368.5 425.8 377.322Z" fill="#69BCFF"/>
</g>
<defs>
<clipPath id="clip0_163_9">
<rect width="820" height="812" fill="white"/>
</clipPath>
</defs>
</svg>
