<svg width="1067" height="1067" viewBox="0 0 1067 1067" fill="none" xmlns="http://www.w3.org/2000/svg">
<path d="M889.164 577.957C889.164 800.248 733.56 911.394 548.614 975.859C538.929 979.141 528.409 978.984 518.826 975.414C333.435 911.394 177.831 800.248 177.831 577.957V266.748C177.831 254.957 182.515 243.649 190.853 235.311C199.19 226.974 210.498 222.29 222.289 222.29C311.206 222.29 422.352 168.94 499.709 101.363C509.128 93.3163 521.11 88.895 533.498 88.895C545.886 88.895 557.867 93.3163 567.286 101.363C645.088 169.385 755.789 222.29 844.706 222.29C856.497 222.29 867.805 226.974 876.143 235.311C884.48 243.649 889.164 254.957 889.164 266.748V577.957Z" stroke="#FF3880" stroke-width="88.9167" stroke-linecap="round" stroke-linejoin="round"/>
<path d="M400.125 533.501L489.042 622.418L666.875 444.585" stroke="#FF3880" stroke-width="88.9167" stroke-linecap="round" stroke-linejoin="round"/>
</svg>
