<svg width="884" height="884" viewBox="0 0 884 884" fill="none" xmlns="http://www.w3.org/2000/svg">
<path d="M258.779 385.831L113.65 599.691C109.415 606.55 113.787 615.467 121.804 616.345L408.157 646.622L258.779 385.831ZM122.189 523.525L225.711 355.678L120.332 292.6C116.661 290.405 112 293.039 112 297.305V520.658C112 526.187 119.274 528.244 122.189 523.525ZM137.093 671.919L404.389 792.177C411.677 795.538 419.996 790.215 419.996 782.217V692.127L140.118 661.534C134 660.849 131.552 669.203 137.093 671.919ZM248.769 318.281L358.671 122.187C364.639 112.502 353.735 101.266 343.849 106.905L136.488 242.184C133.092 244.406 133.202 249.4 136.667 251.485L248.769 318.281ZM441.995 332.247H592.157L460.736 101.252C456.432 94.2834 449.214 90.7989 441.995 90.7989C434.777 90.7989 427.558 94.2834 423.254 101.252L291.834 332.247H441.995ZM763.658 292.6L658.28 355.692L761.802 523.539C764.703 528.258 771.99 526.2 771.99 520.658V297.305C771.99 293.039 767.329 290.405 763.658 292.6ZM635.221 318.281L747.323 251.471C750.802 249.386 750.898 244.393 747.502 242.17L540.141 106.905C530.255 101.266 519.352 112.502 525.319 122.187L635.221 318.281ZM743.872 661.534L463.995 692.113V782.203C463.995 790.215 472.314 795.524 479.601 792.163L746.897 671.906C752.438 669.203 749.991 660.849 743.872 661.534ZM625.211 385.831L475.847 646.622L762.201 616.345C770.217 615.454 774.589 606.55 770.354 599.691L625.211 385.831ZM441.995 376.146H303.906L441.995 617.251L580.084 376.146H441.995Z" fill="#FE579A"/>
</svg>
