<svg width="248" height="248" viewBox="0 0 248 248" fill="none" xmlns="http://www.w3.org/2000/svg">
<g clip-path="url(#clip0_10_5)">
<mask id="mask0_10_5" style="mask-type:luminance" maskUnits="userSpaceOnUse" x="0" y="0" width="248" height="248">
<path d="M248 0H0V248H248V0Z" fill="white"/>
</mask>
<g mask="url(#mask0_10_5)">
<path d="M235.035 56.4904H126.861L160.631 22.7201C161.478 21.8724 161.478 20.5099 160.631 19.6622L152.192 11.2157C151.352 10.368 149.982 10.368 149.142 11.2157L105.699 54.6583L62.2722 11.2157C61.4246 10.368 60.0619 10.368 59.2143 11.2157L50.7678 19.6622C49.9202 20.5099 49.9202 21.8724 50.7678 22.7201L84.5531 56.4904H12.9648C5.80525 56.4904 0 62.3029 0 69.4623V224.447C0 231.607 5.80475 237.419 12.9648 237.419H235.036C242.195 237.419 248.001 231.607 248.001 224.447V69.4623C248 62.3029 242.195 56.4904 235.035 56.4904ZM185.803 204.013C185.803 208.145 182.458 211.491 178.333 211.491H32.3776C28.2454 211.491 24.8998 208.145 24.8998 204.013V92.9395C24.8998 88.8072 28.2449 85.4617 32.3776 85.4617H178.333C182.458 85.4617 185.803 88.8066 185.803 92.9395V204.013ZM229.2 161.691H207.343V139.833H229.2V161.691ZM217.507 113.419C210.771 113.419 205.315 107.955 205.315 101.219C205.315 94.4827 210.771 89.0184 217.507 89.0184C224.243 89.0184 229.7 94.4827 229.7 101.219C229.7 107.955 224.243 113.419 217.507 113.419Z" fill="#B7DCFF"/>
</g>
</g>
<defs>
<clipPath id="clip0_10_5">
<rect width="248" height="248" fill="white"/>
</clipPath>
</defs>
</svg>
