<svg width="800" height="800" viewBox="0 0 800 800" fill="none" xmlns="http://www.w3.org/2000/svg">
<g clip-path="url(#clip0_159_2)">
<path d="M758.178 182.227H409.228L518.164 73.2906C520.898 70.5562 520.898 66.1609 518.164 63.4266L490.942 36.1797C488.233 33.4453 483.813 33.4453 481.103 36.1797L340.966 176.317L200.878 36.1797C198.144 33.4453 193.748 33.4453 191.014 36.1797L163.767 63.4266C161.033 66.1609 161.033 70.5562 163.767 73.2906L272.752 182.227H41.8219C18.7266 182.227 0 200.977 0 224.072V724.023C0 747.119 18.725 765.869 41.8219 765.869H758.18C781.275 765.869 800.002 747.119 800.002 724.023V224.072C800 200.977 781.275 182.227 758.178 182.227ZM599.366 658.106C599.366 671.436 588.575 682.228 575.269 682.228H104.444C91.1141 682.228 80.3219 671.437 80.3219 658.106V299.805C80.3219 286.475 91.1125 275.683 104.444 275.683H575.269C588.575 275.683 599.366 286.473 599.366 299.805V658.106ZM739.356 521.583H668.848V451.075H739.356V521.583ZM701.636 365.869C679.908 365.869 662.305 348.242 662.305 326.513C662.305 304.783 679.908 287.156 701.636 287.156C723.364 287.156 740.967 304.783 740.967 326.513C740.967 348.242 723.364 365.869 701.636 365.869Z" fill="url(#paint0_linear_159_2)"/>
</g>
<defs>
<linearGradient id="paint0_linear_159_2" x1="-4.1876e-05" y1="34" x2="516.5" y2="736.5" gradientUnits="userSpaceOnUse">
<stop stop-color="#66E8FF"/>
<stop offset="1" stop-color="#6600A2"/>
</linearGradient>
<clipPath id="clip0_159_2">
<rect width="800" height="800" fill="white"/>
</clipPath>
</defs>
</svg>
