<svg width="820" height="812" viewBox="0 0 820 812" fill="none" xmlns="http://www.w3.org/2000/svg">
<path d="M641.082 406.003C717.433 291.384 739.191 183.262 687.094 131.648C634.945 80.0339 525.546 101.658 409.611 177.475C381.292 158.166 348.908 140.461 314.797 126.018L311.131 124.65C232.256 93.4505 169.002 95.9233 132.925 131.674C96.8485 167.426 94.3247 230.089 125.832 308.141C141.825 345.55 159.677 377.592 180.426 407.555L179.177 405.661C102.613 520.438 80.7229 628.797 132.899 680.49C152.079 698.089 177.875 708.901 206.195 708.901C208.24 708.901 210.259 708.848 212.278 708.743H211.986C287.115 702.351 354.912 675.623 410.993 634.242L409.957 634.979C465.028 675.649 532.825 702.377 606.493 708.664L607.927 708.77C609.601 708.849 611.567 708.901 613.533 708.901C641.932 708.901 667.781 698.089 687.121 680.384L687.041 680.437C739.137 628.823 717.353 520.675 640.976 406.056L641.082 406.003ZM608.113 142.855C609.654 142.723 611.434 142.671 613.214 142.671C630.721 142.671 646.741 149.063 658.987 159.612L658.908 159.533C691.132 191.444 676.016 274.495 615.924 370.436C590.58 337.289 564.678 307.931 536.837 280.466L536.81 280.44C508.809 252.897 478.79 227.248 447.07 203.755L444.865 202.177C490.691 170.004 546.4 148.642 606.732 142.934L608.087 142.829L608.113 142.855ZM311.396 308.352C341.257 278.756 373.508 251.529 407.831 226.984L410.143 225.406C446.645 251.608 478.79 278.835 508.597 308.352H508.65C538.457 337.868 565.873 369.752 590.606 403.688L592.2 405.977C565.873 442.228 538.431 474.138 508.597 503.654C478.79 533.171 446.591 560.32 412.321 584.811L410.01 586.39C373.428 560.32 341.23 533.144 311.423 503.602C281.616 474.085 254.146 442.28 229.307 408.476L227.713 406.187C254.067 369.884 281.563 337.921 311.423 308.325L311.396 308.352ZM162.839 293.462C137.973 231.878 137.335 183.078 161.112 159.533C173.492 148.748 189.83 142.145 207.735 142.145C209.462 142.145 211.189 142.197 212.863 142.329H212.624C243.148 143.539 271.76 150.405 297.821 161.848L296.333 161.27C326.433 173.95 352.016 187.577 376.191 203.203L374.252 202.019C309.377 250.845 253.296 306.379 205.557 368.516L203.99 370.647C189.405 348.628 175.617 323.294 164.087 296.75L162.812 293.488L162.839 293.462ZM161.112 652.525C128.834 620.51 144.083 537.169 204.521 440.912C229.759 474.348 255.554 503.918 283.29 531.566L283.236 531.513C311.025 559.083 340.725 584.732 372.1 608.277L374.225 609.803C277.259 669.335 193.363 684.33 161.112 652.525ZM658.961 652.473C626.657 684.436 542.734 669.414 445.768 609.829C479.294 584.759 508.969 559.109 536.757 531.566C564.625 504.049 590.553 474.69 614.383 443.622L615.924 441.544C676.016 537.511 691.159 620.562 658.961 652.473ZM410.01 478.347C450.364 478.347 483.067 445.963 483.067 406.003C483.067 366.043 450.364 333.659 410.01 333.659C369.656 333.659 336.953 366.043 336.953 406.003C337.006 445.937 369.683 478.295 410.01 478.347ZM410.01 373.119C428.341 373.119 443.218 387.851 443.218 406.003C443.218 424.155 428.341 438.887 410.01 438.887C391.679 438.887 376.802 424.155 376.802 406.003C376.829 387.851 391.679 373.146 410.01 373.119Z" fill="#FF897E"/>
</svg>
